name rise44.9368peak50.754fall52.0217.mot
datacolumns 19
datarows 17
range 1.37833300000000 1.40499600000000
endheader
time	ground_force1_vx	ground_force1_vy	ground_force1_vz	ground_force1_px	ground_force1_py	ground_force1_pz	ground_force2_vx	ground_force2_vy	ground_force2_vz	ground_force2_px	ground_force2_py	ground_force2_pz	ground_torque1_x	ground_torque1_y	ground_torque1_z	ground_torque2_x	ground_torque2_y	ground_torque2_z	
1.37833300000000	-57.22753900000000	814.72061099999996	60.44401800000000	0.15605500000000	0.00000000000000	0.09769300000000	-5.08671000000000	21.05856600000000	3.99654000000000	0.00000000000000	0.00000000000000	0.00000000000000	0.00000000000000	27.46088200000000	0.00000000000000	0.00000000000000	1.50113300000000	0.00000000000000	
1.37999700000000	-57.43925700000000	813.22639300000003	60.36796200000000	0.15538000000000	0.00000000000000	0.09766600000000	-6.13096100000000	26.85086900000000	4.93585700000000	0.35874700000000	0.00000000000000	-0.09471300000000	0.00000000000000	27.35086900000000	0.00000000000000	0.00000000000000	3.05433800000000	0.00000000000000	
1.38166800000000	-57.66129600000000	811.61156600000004	60.27511800000000	0.15471100000000	0.00000000000000	0.09763600000000	-7.13988500000000	33.01192300000000	5.88763900000000	0.36368800000000	0.00000000000000	-0.09512400000000	0.00000000000000	27.23944400000000	0.00000000000000	0.00000000000000	3.69809900000000	0.00000000000000	
1.38333000000000	-57.89431300000000	809.87420299999997	60.16505600000000	0.15404900000000	0.00000000000000	0.09760300000000	-8.07354000000000	39.41777500000000	6.82311000000000	0.36824700000000	0.00000000000000	-0.09550000000000	0.00000000000000	27.12677600000000	0.00000000000000	0.00000000000000	4.34746300000000	0.00000000000000	
1.38499900000000	-58.13891500000000	808.01242200000002	60.03736200000000	0.15339500000000	0.00000000000000	0.09756600000000	-8.89602800000000	45.94740000000000	7.71542800000000	0.37248900000000	0.00000000000000	-0.09584500000000	0.00000000000000	27.01303000000000	0.00000000000000	0.00000000000000	4.98546000000000	0.00000000000000	
1.38666300000000	-58.39566700000000	806.02438900000004	59.89163300000000	0.15275100000000	0.00000000000000	0.09752600000000	-9.57783700000000	52.49178200000000	8.54148700000000	0.37646200000000	0.00000000000000	-0.09616400000000	0.00000000000000	26.89836000000000	0.00000000000000	0.00000000000000	5.59697800000000	0.00000000000000	
1.38833200000000	-58.66507600000000	803.90831200000002	59.72748400000000	0.15211600000000	0.00000000000000	0.09748200000000	-10.09739500000000	58.96092600000000	9.28320300000000	0.38020700000000	0.00000000000000	-0.09646100000000	0.00000000000000	26.78291400000000	0.00000000000000	0.00000000000000	6.16966100000000	0.00000000000000	
1.39000100000000	-58.94759800000000	801.66245300000003	59.54454200000000	0.15149300000000	0.00000000000000	0.09743400000000	-10.44176800000000	65.28831700000001	9.92821700000000	0.38375600000000	0.00000000000000	-0.09673700000000	0.00000000000000	26.66682800000000	0.00000000000000	0.00000000000000	6.69446600000000	0.00000000000000	
1.39166500000000	-59.24362900000000	799.28512100000000	59.34245700000000	0.15088100000000	0.00000000000000	0.09738300000000	-10.60656100000000	71.43274400000000	10.47002400000000	0.38713500000000	0.00000000000000	-0.09699700000000	0.00000000000000	26.55022800000000	0.00000000000000	0.00000000000000	7.16586500000000	0.00000000000000	
1.39333100000000	-59.55350300000000	796.77467799999999	59.12089300000000	0.15028100000000	0.00000000000000	0.09732600000000	-10.59512300000000	77.37775499999999	10.90759500000000	0.39036400000000	0.00000000000000	-0.09724100000000	0.00000000000000	26.43322900000000	0.00000000000000	0.00000000000000	7.58172400000000	0.00000000000000	
1.39500100000000	-59.87748900000000	794.12954000000002	58.87954000000000	0.14969500000000	0.00000000000000	0.09726600000000	-10.41726600000000	83.12915500000000	11.24462100000000	0.39346000000000	0.00000000000000	-0.09747200000000	0.00000000000000	26.31593100000000	0.00000000000000	0.00000000000000	7.94292700000000	0.00000000000000	
1.39666700000000	-60.21578800000000	791.34817899999996	58.61810500000000	0.14912300000000	0.00000000000000	0.09720100000000	-10.08766600000000	88.71111500000001	11.48849800000000	0.39643700000000	0.00000000000000	-0.09769200000000	0.00000000000000	26.19842200000000	0.00000000000000	0.00000000000000	8.25281100000000	0.00000000000000	
1.39833100000000	-60.56852800000000	788.42912400000000	58.33632100000000	0.14856600000000	0.00000000000000	0.09713200000000	-9.62414000000000	94.16144300000001	11.64918600000000	0.39930600000000	0.00000000000000	-0.09790100000000	0.00000000000000	26.08077600000000	0.00000000000000	0.00000000000000	8.51650400000000	0.00000000000000	
1.39999600000000	-60.93576500000000	785.37096399999996	58.03394600000000	0.14802400000000	0.00000000000000	0.09705700000000	-9.04597100000000	99.52655900000001	11.73805100000000	0.40207700000000	0.00000000000000	-0.09810000000000	0.00000000000000	25.96304900000000	0.00000000000000	0.00000000000000	8.74021400000000	0.00000000000000	
1.40166500000000	-61.31747300000000	782.17234900000005	57.71076200000000	0.14749700000000	0.00000000000000	0.09697800000000	-8.37239100000000	104.85663400000000	11.76680600000000	0.40475700000000	0.00000000000000	-0.09829200000000	0.00000000000000	25.84528500000000	0.00000000000000	0.00000000000000	8.93056700000000	0.00000000000000	
1.40333200000000	-61.71355100000000	778.83199200000001	57.36657900000000	0.14698800000000	0.00000000000000	0.09689400000000	-7.62133500000000	110.20125299999999	11.74659000000000	0.40735300000000	0.00000000000000	-0.09847700000000	0.00000000000000	25.72750800000000	0.00000000000000	0.00000000000000	9.09401300000000	0.00000000000000	
1.40499600000000	-62.12381100000000	775.34867299999996	57.00123500000000	0.14649500000000	0.00000000000000	0.09680500000000	-6.80850600000000	115.60585100000000	11.68726200000000	0.40986800000000	0.00000000000000	-0.09865500000000	0.00000000000000	25.60972600000000	0.00000000000000	0.00000000000000	9.23634500000000	0.00000000000000	
